<svg width="100" height="82" viewBox="0 0 100 82" fill="none" xmlns="http://www.w3.org/2000/svg">
<path d="M62.3333 41.126V64.1116C62.3333 67.8975 62.3333 69.7904 63.0055 71.2372C63.5967 72.5092 64.5401 73.5434 65.7003 74.1915C67.02 74.9284 68.7467 74.9284 72.1938 74.9284H83.3C86.7533 74.9284 88.4738 74.9284 89.7935 74.1915C90.9528 73.5425 91.8963 72.5014 92.4883 71.2372C93.1667 69.7904 93.1667 67.8975 93.1667 64.1116V51.9225C93.1667 48.1433 93.1667 46.2572 92.4945 44.8104C91.9033 43.5384 90.96 42.5042 89.7997 41.8561C88.48 41.126 86.7533 41.126 83.3 41.126H62.3333ZM62.3333 41.126V27.605C62.3333 22.226 64.2824 17.0673 67.7519 13.2638C71.2213 9.46028 75.9268 7.32349 80.8333 7.32349M6.83334 41.126V64.1116C6.83334 67.8975 6.83334 69.7904 7.5055 71.2372C8.09671 72.5092 9.04005 73.5434 10.2003 74.1915C11.52 74.9284 13.2467 74.9284 16.6877 74.9284H27.8123C31.2595 74.9284 32.98 74.9284 34.2997 74.1915C35.459 73.5425 36.4025 72.5014 36.9945 71.2372C37.6667 69.7904 37.6667 67.8975 37.6667 64.1116V51.9225C37.6667 48.1433 37.6667 46.2572 36.9945 44.8104C36.4033 43.5384 35.46 42.5042 34.2997 41.8561C32.98 41.126 31.2533 41.126 27.8 41.126H6.83334ZM6.83334 41.126V27.605C6.83334 22.226 8.78244 17.0673 12.2519 13.2638C15.7213 9.46028 20.4268 7.32349 25.3333 7.32349" stroke="#FFC12D" stroke-width="13" stroke-linecap="round" stroke-linejoin="round"/>
</svg>
